<svg width="48" height="48" xmlns="http://www.w3.org/2000/svg"><g fill="none" fill-rule="evenodd"><path d="M36 72c19.882 0 36-16.118 36-36S55.882 0 36 0 0 16.118 0 36s16.118 36 36 36z" fill="#000"/><path d="M18 26.162v20.386c0 1.109.812 2.007 1.93 2.007h31.815c1.117 0 1.93-.909 1.93-2.007V26.162c0-1.217-.727-2.162-1.93-2.162H19.93c-1.25 0-1.93.969-1.93 2.162m2.933 1.776c0-.491.298-.772.773-.772.293 0 11.854 7.325 12.554 7.755l1.81 1.125c.573-.384 1.15-.713 1.744-1.111 1.213-.776 12.011-7.77 12.308-7.77.477 0 .773.282.773.773 0 .52-1.002 1.037-1.655 1.435-4.1 2.5-8.2 5.224-12.26 7.816-.237.16-.695.503-1.04.45-.382-.059-12.146-7.617-14.287-8.875-.321-.19-.72-.363-.72-.826" fill="#FFF"/></g></svg>